<svg xmlns="http://www.w3.org/2000/svg" width="800px" height="800px" viewBox="0 0 512 512">
  <defs>
    <!-- Gradient for mystical background -->
    <radialGradient id="grad" cx="50%" cy="50%" r="50%" fx="50%" fy="50%">
      <stop offset="0%" style="stop-color:#ffffff;stop-opacity:1" />
      <stop offset="100%" style="stop-color:#c0c0c0;stop-opacity:0" />
    </radialGradient>
  </defs>
  <!-- Monk with rounded edges -->
  <path fill="#ffffff" d="M255.563 19.313c-8.59.207-16.054 6.34-26.22 18.906L173.75 137.874l70.625 38.75c-20-18-35-35-27 5l-25.25-31.906c50.398-102.846 66.005-85.992 111.78 0l-34.842 31.56 75.343-34.405-73.78-95.906c-8.694-9.432-16.4-12.867-25.063-12.657zm92.593 147.812L248.75 204.5l-4 1.875-3.97-1.875-66.56-36.25L80.343 301.094l22.75 14.125 60.03 15.06 28.94-108.217 19.217 8.156-67.53 273.905h88.906l18.594-255.47 17.594 7.376 15.75-8.374 16.656 256.47h89.906l-59.75-274.72 19.25-8.125 29.22 109.25 68.687-15.405L454 301.095l-98.844-123.97zM105.094 337.813c-1.266 3.364-1.97 7.008-1.97 10.812 0 16.984 13.767 30.75 30.75 30.75 3.754 0 7.363-.676 10.69-1.906l7.092-29.033-46.562-10.625zm306.812 0l-47.562 10.875 6.906 28.28c3.65 1.534 7.665 2.407 11.875 2.407 16.984 0 30.75-13.766 30.75-30.75 0-3.81-.706-7.448-1.97-10.813z"/>

  <!-- Staff with rounded ends for softer effect -->
  <line x1="256" y1="256" x2="256" y2="400" stroke="#ffffff" stroke-width="8" stroke-linecap="round" />
  <circle cx="256" cy="256" r="10" fill="#ffffff"/>
</svg>
